<svg width="389" height="73" viewBox="0 0 389 73" fill="none" xmlns="http://www.w3.org/2000/svg">
<g filter="url(#filter0_d_309_8)">
<path d="M34.7278 10.2768C37.4264 10.2768 39.8576 10.3974 42.2162 10.5784L43.8801 1.53022C38.6552 0.927002 36.7538 0.927002 33.1352 0.927002C20.5007 0.927002 15.4525 4.3653 14.1214 11.6038L13.7553 13.5944H6.3341L4.11555 25.6586H11.5368L7.09968 49.787H21.8195L26.2566 25.6586H39.4431L41.6616 13.5944H28.5978C29.4486 11.3022 31.1705 10.2768 34.7278 10.2768Z" fill="white"/>
<path d="M45.7019 1.53022L36.8277 49.787H51.5475L60.4217 1.53022H45.7019Z" fill="white"/>
<path d="M60.6732 13.5944L54.0176 49.787H68.7374L75.393 13.5944H60.6732Z" fill="white"/>
<path d="M112.577 13.5944L111.579 19.0233C109.088 15.2231 104.286 12.9912 96.8644 12.9912C85.5179 12.9912 76.3845 18.2995 74.1438 30.4843C71.9031 42.6691 79.0841 47.9774 90.4306 47.9774C97.8519 47.9774 103.476 45.7455 107.364 41.9453C105.555 51.1141 101.38 52.8031 94.2045 52.8031C86.2313 52.8031 78.4571 51.0538 74.3693 50.2696L72.2062 62.0322C75.5358 62.937 84.1967 64.8673 94.6846 64.8673C107.319 64.8673 118.833 59.6193 121.496 45.1423L127.297 13.5944H112.577ZM98.1691 35.9132C90.3799 35.9132 88.1093 34.5861 88.8636 30.4843C89.6179 26.3825 92.3766 25.0554 100.166 25.0554C107.955 25.0554 110.226 26.3825 109.471 30.4843C108.717 34.5861 105.958 35.9132 98.1691 35.9132Z" fill="white"/>
<path d="M162.349 12.9912C154.621 12.9912 148.535 15.404 143.565 18.4201L146.671 1.53022H131.951L123.077 49.787H137.796L141.39 30.243C144.772 27.5286 149.716 25.6586 154.071 25.6586C160.694 25.6586 162.476 28.3127 161.333 34.5258L158.527 49.787H173.246L177.14 28.6143C179.547 15.5247 170.629 12.9912 162.349 12.9912Z" fill="white"/>
<path d="M216.117 25.6586L218.335 13.5944H203.309L205.083 3.94305L189.698 7.56231L188.589 13.5944H181.168L178.949 25.6586H186.37L183.897 39.1102C182.455 46.9519 187.465 50.3902 198.873 50.3902C203.718 50.3902 208.128 50.0886 211.735 49.4854L213.898 37.7228C209.555 38.326 207.715 38.326 204.403 38.326C200.11 38.326 199.082 36.5767 199.715 33.1384L201.09 25.6586H216.117Z" fill="white"/>
<path d="M250.215 12.9912C244.511 12.9912 238.558 14.6802 233.984 18.5407L234.893 13.5944H220.174L210.745 64.8673H225.465L229.147 44.8407C232.301 48.7012 237.633 50.3902 243.337 50.3902C252.844 50.3902 264.209 46.2884 266.893 31.6907C269.578 17.093 259.721 12.9912 250.215 12.9912ZM240.649 38.326C234.087 38.326 230.589 36.999 231.566 31.6907C232.542 26.3825 236.527 25.0554 243.09 25.0554C249.652 25.0554 253.149 26.3825 252.173 31.6907C251.197 36.999 247.212 38.326 240.649 38.326Z" fill="white"/>
<path d="M326.751 13.5944H304.058L284.389 26.5031L288.981 1.53022H274.261L265.387 49.787H280.107L281.471 42.3675L291.262 36.1545L301.083 49.787H320.096L303.872 28.6143L326.751 13.5944Z" fill="white"/>
<path d="M357.188 13.5944L356.19 19.0233C353.7 15.2231 348.897 12.9912 341.476 12.9912C330.129 12.9912 320.996 18.2995 318.755 30.4843C316.514 42.6691 323.695 47.9774 335.042 47.9774C342.463 47.9774 348.087 45.7455 351.975 41.9453C350.166 51.1141 345.992 52.8031 338.816 52.8031C330.842 52.8031 323.068 51.0538 318.98 50.2696L316.817 62.0322C320.147 62.937 328.808 64.8673 339.296 64.8673C351.93 64.8673 363.444 59.6193 366.107 45.1423L371.908 13.5944H357.188ZM342.78 35.9132C334.991 35.9132 332.72 34.5861 333.475 30.4843C334.229 26.3825 336.988 25.0554 344.777 25.0554C352.566 25.0554 354.837 26.3825 354.082 30.4843C353.328 34.5861 350.569 35.9132 342.78 35.9132Z" fill="white"/>
<path d="M369.684 38.9292L367.688 49.787H382.407L384.404 38.9292H369.684Z" fill="white"/>
</g>
<defs>
<filter id="filter0_d_309_8" x="0.115723" y="0.927002" width="388.289" height="71.9402" filterUnits="userSpaceOnUse" color-interpolation-filters="sRGB">
<feFlood flood-opacity="0" result="BackgroundImageFix"/>
<feColorMatrix in="SourceAlpha" type="matrix" values="0 0 0 0 0 0 0 0 0 0 0 0 0 0 0 0 0 0 127 0" result="hardAlpha"/>
<feOffset dy="4"/>
<feGaussianBlur stdDeviation="2"/>
<feComposite in2="hardAlpha" operator="out"/>
<feColorMatrix type="matrix" values="0 0 0 0 0 0 0 0 0 0 0 0 0 0 0 0 0 0 0.25 0"/>
<feBlend mode="normal" in2="BackgroundImageFix" result="effect1_dropShadow_309_8"/>
<feBlend mode="normal" in="SourceGraphic" in2="effect1_dropShadow_309_8" result="shape"/>
</filter>
</defs>
</svg>
